<svg xmlns="http://www.w3.org/2000/svg" viewBox="0 0 400 400">
  <path fill="#D4821F" d="M200 50c-20 0-36.7 16.7-36.7 36.7v26.6c0 20 16.7 36.7 36.7 36.7s36.7-16.7 36.7-36.7V86.7C236.7 66.7 220 50 200 50zM163.3 200c0-20-16.7-36.7-36.7-36.7H100c-20 0-36.7 16.7-36.7 36.7s16.7 36.7 36.7 36.7h26.6c20 0 36.7-16.7 36.7-36.7zM300 163.3h-26.6c-20 0-36.7 16.7-36.7 36.7s16.7 36.7 36.7 36.7H300c20 0 36.7-16.7 36.7-36.7s-16.7-36.7-36.7-36.7zM200 276.7c-20 0-36.7 16.7-36.7 36.7v26.6c0 20 16.7 36.7 36.7 36.7s36.7-16.7 36.7-36.7v-26.6c0-20-16.7-36.7-36.7-36.7z"/>
  <path fill="#D4821F" d="M200 0C89.7 0 0 89.7 0 200s89.7 200 200 200 200-89.7 200-200S310.3 0 200 0zm0 366.7c-91.8 0-166.7-74.9-166.7-166.7S108.2 33.3 200 33.3 366.7 108.2 366.7 200 291.8 366.7 200 366.7z"/>
</svg>